<?xml version="1.0" encoding="UTF-8"?>
<svg id="Layer_1" data-name="Layer 1" xmlns="http://www.w3.org/2000/svg" viewBox="0 0 37 37">
  <defs>
    <style>
      .cls-1 {
        fill: blue;
      }

      .cls-2 {
        fill: #ff0;
      }
    </style>
  </defs>
  <g>
    <path class="cls-1" d="m.5,24.5V.5h24v9.04c-.34-.03-.68-.04-1-.04-7.72,0-14,6.28-14,14,0,.32.01.66.04,1H.5Z"/>
    <path class="cls-2" d="m24,1v8.01c-.17,0-.34,0-.5,0-8,0-14.5,6.5-14.5,14.5,0,.16,0,.33,0,.5H1V1h23m1-1H0v25h10.09c-.05-.49-.09-.99-.09-1.5,0-7.46,6.04-13.5,13.5-13.5.51,0,1.01.03,1.5.09V0h0Z"/>
  </g>
  <g>
    <path class="cls-1" d="m23.5,36.5c-6.45,0-11.87-4.69-12.84-11h14.84v-14.84c6.31.97,11,6.4,11,12.84,0,7.17-5.83,13-13,13Z"/>
    <path class="cls-2" d="m26,11.25c5.77,1.17,10,6.25,10,12.25,0,6.89-5.61,12.5-12.5,12.5-6,0-11.08-4.23-12.25-10h14.75v-14.75m-1-1.17v14.91h-14.91c.75,6.75,6.46,12,13.41,12,7.46,0,13.5-6.04,13.5-13.5,0-6.95-5.25-12.67-12-13.41h0Z"/>
  </g>
</svg>