<?xml version="1.0" encoding="utf-8"?>
<!-- Generator: Adobe Illustrator 27.5.0, SVG Export Plug-In . SVG Version: 6.00 Build 0)  -->
<svg version="1.1" id="Layer_1" xmlns="http://www.w3.org/2000/svg" xmlns:xlink="http://www.w3.org/1999/xlink" x="0px" y="0px"
	 viewBox="0 0 97 97" style="enable-background:new 0 0 97 97;" xml:space="preserve">
<style type="text/css">
	.st0{fill:#FF1D25;}
	.st1{fill:#FF931E;}
</style>
<rect x="69.37" y="4.36" transform="matrix(0.7071 0.7071 -0.7071 0.7071 34.7834 -52.4877)" class="st0" width="22.77" height="22.77"/>
<rect x="5" y="4.36" transform="matrix(0.7071 0.7071 -0.7071 0.7071 15.9317 -6.9758)" class="st0" width="22.77" height="22.77"/>
<rect x="37.26" y="4.36" transform="matrix(0.7071 0.7071 -0.7071 0.7071 25.3795 -29.7847)" class="st1" width="22.77" height="22.77"/>
<rect x="37.26" y="36.62" transform="matrix(0.7071 0.7071 -0.7071 0.7071 48.1883 -20.3369)" class="st0" width="22.77" height="22.77"/>
<rect x="69.26" y="68.62" transform="matrix(0.7071 0.7071 -0.7071 0.7071 80.1883 -33.5918)" class="st0" width="22.77" height="22.77"/>
<rect x="69.51" y="36.62" transform="matrix(0.7071 0.7071 -0.7071 0.7071 57.6361 -43.1458)" class="st1" width="22.77" height="22.77"/>
<rect x="5" y="68.87" transform="matrix(0.7071 0.7071 -0.7071 0.7071 61.5495 11.9197)" class="st0" width="22.77" height="22.77"/>
<rect x="37.26" y="68.87" transform="matrix(0.7071 0.7071 -0.7071 0.7071 70.9972 -10.8892)" class="st1" width="22.77" height="22.77"/>
<rect x="5.26" y="36.87" transform="matrix(0.7071 0.7071 -0.7071 0.7071 38.9972 2.3656)" class="st1" width="22.77" height="22.77"/>
</svg>
